# xmcd CD database file
#
# Track frame offsets:
#	150
#	17338
#	32764
#	48752
#	61266
#	81100
#	102458
#	115713
#	137447
#	151214
#	166494
#	187580
#
# Disc length: 2811 seconds
#
# Revision: 0
# Processed by: cddbd v1.5.2PL0 Copyright (c) Steve Scherf et al.
# Submitted via: CDex 1.70beta2
#
DISCID=820af90c
DTITLE=500 Miles to Memphis - Sunshine In A Shot Glass
DYEAR=2007
DGENRE=Country
TTITLE0=All My Friends Are Crazy
TTITLE1=Broken, Busted, Bloody
TTITLE2=Don't Mislead
TTITLE3=Darlin'
TTITLE4=My Time Is Up
TTITLE5=Keep It Together
TTITLE6=I'll Miss You (Whatever)
TTITLE7=Cheers
TTITLE8=Fireflies
TTITLE9=Let It Rain
TTITLE10=Sunshine In A Shot Glass
TTITLE11=The Regret
EXTD=YEAR: 2007
EXTT0=
EXTT1=
EXTT2=
EXTT3=
EXTT4=
EXTT5=
EXTT6=
EXTT7=
EXTT8=
EXTT9=
EXTT10=
EXTT11=
PLAYORDER=
